<svg width="18" height="17" viewBox="0 0 18 17" fill="none" xmlns="http://www.w3.org/2000/svg">
<g filter="url(#filter0_d_2011_523)">
<path d="M3.66667 6.88889C3.66667 6.62625 3.7184 6.36617 3.81891 6.12352C3.91942 5.88087 4.06674 5.66039 4.25245 5.47468C4.43817 5.28896 4.65865 5.14164 4.9013 5.04113C5.14395 4.94062 5.40402 4.88889 5.66667 4.88889C5.92931 4.88889 6.18938 4.94062 6.43203 5.04113C6.67469 5.14164 6.89516 5.28896 7.08088 5.47468C7.2666 5.66039 7.41392 5.88087 7.51443 6.12352C7.61493 6.36617 7.66667 6.62625 7.66667 6.88889C7.66667 7.41932 7.45595 7.92803 7.08088 8.3031C6.70581 8.67817 6.1971 8.88889 5.66667 8.88889C5.13623 8.88889 4.62753 8.67817 4.25245 8.3031C3.87738 7.92803 3.66667 7.41932 3.66667 6.88889ZM5.66667 6.22222C5.48986 6.22222 5.32029 6.29246 5.19526 6.41748C5.07024 6.54251 5 6.71208 5 6.88889C5 7.0657 5.07024 7.23527 5.19526 7.36029C5.32029 7.48532 5.48986 7.55556 5.66667 7.55556C5.84348 7.55556 6.01305 7.48532 6.13807 7.36029C6.26309 7.23527 6.33333 7.0657 6.33333 6.88889C6.33333 6.71208 6.26309 6.54251 6.13807 6.41748C6.01305 6.29246 5.84348 6.22222 5.66667 6.22222ZM5.66667 9.77778C5.13623 9.77778 4.62753 9.98849 4.25245 10.3636C3.87738 10.7386 3.66667 11.2473 3.66667 11.7778C3.66667 12.3082 3.87738 12.8169 4.25245 13.192C4.62753 13.5671 5.13623 13.7778 5.66667 13.7778C6.1971 13.7778 6.70581 13.5671 7.08088 13.192C7.45595 12.8169 7.66667 12.3082 7.66667 11.7778C7.66667 11.2473 7.45595 10.7386 7.08088 10.3636C6.70581 9.98849 6.1971 9.77778 5.66667 9.77778ZM5 11.7778C5 11.601 5.07024 11.4314 5.19526 11.3064C5.32029 11.1813 5.48986 11.1111 5.66667 11.1111C5.84348 11.1111 6.01305 11.1813 6.13807 11.3064C6.26309 11.4314 6.33333 11.601 6.33333 11.7778C6.33333 11.9546 6.26309 12.1242 6.13807 12.2492C6.01305 12.3742 5.84348 12.4444 5.66667 12.4444C5.48986 12.4444 5.32029 12.3742 5.19526 12.2492C5.07024 12.1242 5 11.9546 5 11.7778ZM9 6.88889C9 6.71208 9.07024 6.54251 9.19526 6.41748C9.32029 6.29246 9.48986 6.22222 9.66667 6.22222H13.6667C13.8435 6.22222 14.013 6.29246 14.1381 6.41748C14.2631 6.54251 14.3333 6.71208 14.3333 6.88889C14.3333 7.0657 14.2631 7.23527 14.1381 7.36029C14.013 7.48532 13.8435 7.55556 13.6667 7.55556H9.66667C9.48986 7.55556 9.32029 7.48532 9.19526 7.36029C9.07024 7.23527 9 7.0657 9 6.88889ZM9.66667 11.1111C9.48986 11.1111 9.32029 11.1813 9.19526 11.3064C9.07024 11.4314 9 11.601 9 11.7778C9 11.9546 9.07024 12.1242 9.19526 12.2492C9.32029 12.3742 9.48986 12.4444 9.66667 12.4444H13.6667C13.8435 12.4444 14.013 12.3742 14.1381 12.2492C14.2631 12.1242 14.3333 11.9546 14.3333 11.7778C14.3333 11.601 14.2631 11.4314 14.1381 11.3064C14.013 11.1813 13.8435 11.1111 13.6667 11.1111H9.66667ZM3.66667 3.33333C3.66667 3.15652 3.7369 2.98695 3.86193 2.86193C3.98695 2.7369 4.15652 2.66667 4.33333 2.66667H13.6667C13.8435 2.66667 14.013 2.7369 14.1381 2.86193C14.2631 2.98695 14.3333 3.15652 14.3333 3.33333C14.3333 3.51014 14.2631 3.67971 14.1381 3.80474C14.013 3.92976 13.8435 4 13.6667 4H4.33333C4.15652 4 3.98695 3.92976 3.86193 3.80474C3.7369 3.67971 3.66667 3.51014 3.66667 3.33333ZM3.88889 0C3.12271 0 2.38791 0.304364 1.84614 0.846136C1.30436 1.38791 1 2.12271 1 2.88889V13.1111C1 13.8773 1.30436 14.6121 1.84614 15.1539C2.38791 15.6956 3.12271 16 3.88889 16H14.1111C14.8773 16 15.6121 15.6956 16.1539 15.1539C16.6956 14.6121 17 13.8773 17 13.1111V2.88889C17 2.12271 16.6956 1.38791 16.1539 0.846136C15.6121 0.304364 14.8773 0 14.1111 0H3.88889ZM2.33333 2.88889C2.33333 2.03022 3.03022 1.33333 3.88889 1.33333H14.1111C14.9698 1.33333 15.6667 2.03022 15.6667 2.88889V13.1111C15.6667 13.5237 15.5028 13.9193 15.2111 14.2111C14.9193 14.5028 14.5237 14.6667 14.1111 14.6667H3.88889C3.47633 14.6667 3.08067 14.5028 2.78895 14.2111C2.49722 13.9193 2.33333 13.5237 2.33333 13.1111V2.88889Z" fill="white"/>
</g>
<defs>
<filter id="filter0_d_2011_523" x="-3" y="0" width="24" height="24" filterUnits="userSpaceOnUse" color-interpolation-filters="sRGB">
<feFlood flood-opacity="0" result="BackgroundImageFix"/>
<feColorMatrix in="SourceAlpha" type="matrix" values="0 0 0 0 0 0 0 0 0 0 0 0 0 0 0 0 0 0 127 0" result="hardAlpha"/>
<feOffset dy="4"/>
<feGaussianBlur stdDeviation="2"/>
<feComposite in2="hardAlpha" operator="out"/>
<feColorMatrix type="matrix" values="0 0 0 0 0 0 0 0 0 0 0 0 0 0 0 0 0 0 0.25 0"/>
<feBlend mode="normal" in2="BackgroundImageFix" result="effect1_dropShadow_2011_523"/>
<feBlend mode="normal" in="SourceGraphic" in2="effect1_dropShadow_2011_523" result="shape"/>
</filter>
</defs>
</svg>
