<svg width="17" height="17" viewBox="0 0 17 17" fill="none" xmlns="http://www.w3.org/2000/svg">
<g clip-path="url(#clip0_2084_545)">
<mask id="mask0_2084_545" style="mask-type:luminance" maskUnits="userSpaceOnUse" x="0" y="0" width="17" height="17">
<path d="M0 0H17V17H0V0Z" fill="white"/>
</mask>
<g mask="url(#mask0_2084_545)">
<path fill-rule="evenodd" clip-rule="evenodd" d="M8.5 0C3.80729 0 0 3.80729 0 8.5C0 13.1927 3.80729 17 8.5 17C13.1835 17 17 13.1927 17 8.5C17 3.80729 13.1835 0 8.5 0ZM14.1143 3.91779C15.1609 5.19226 15.74 6.78645 15.7555 8.43554C15.516 8.3895 13.119 7.90075 10.7036 8.20533C10.6477 8.08492 10.6016 7.956 10.5464 7.82708C10.396 7.47256 10.2363 7.12205 10.0675 6.77592C12.7408 5.68792 13.9577 4.12108 14.1143 3.91779ZM8.5 1.25446C10.3438 1.25446 12.031 1.94508 13.3124 3.07912C13.1835 3.26329 12.0863 4.72954 9.50512 5.69712C8.31512 3.51262 6.99762 1.72337 6.79433 1.44712C7.35341 1.31642 7.92585 1.25152 8.5 1.25375M5.41167 1.93517C5.60504 2.19371 6.89562 3.99146 8.10333 6.12992C4.71042 7.03375 1.71417 7.01533 1.39188 7.01533C1.86221 4.76567 3.38371 2.89425 5.41167 1.93517ZM1.23533 8.5085V8.2875C1.54912 8.29671 5.07025 8.34275 8.69408 7.25475C8.90588 7.66062 9.09925 8.075 9.28342 8.49008C9.19133 8.51771 9.09004 8.54533 8.99796 8.57296C5.25513 9.78067 3.26329 13.0815 3.09754 13.3577C1.89886 12.027 1.23546 10.2995 1.23533 8.5085ZM8.5 15.7647C6.88643 15.7672 5.31862 15.2285 4.04742 14.2347C4.17633 13.9669 5.65108 11.1272 9.74454 9.6985C9.76296 9.68929 9.77287 9.68929 9.79058 9.68008C10.8141 12.3257 11.2285 14.5478 11.3397 15.1838C10.4635 15.5621 9.50513 15.7647 8.5 15.7647ZM12.5474 14.5201C12.4738 14.0774 12.0863 11.9574 11.1364 9.34787C13.4137 8.98875 15.4048 9.57879 15.6542 9.66167C15.3404 11.6804 14.1787 13.4229 12.5474 14.5201Z" fill="#7983D9"/>
</g>
</g>
<defs>
<clipPath id="clip0_2084_545">
<rect width="17" height="17" fill="white"/>
</clipPath>
</defs>
</svg>
