<svg width="17" height="17" viewBox="0 0 17 17" fill="none" xmlns="http://www.w3.org/2000/svg">
<path d="M13.4587 2.83331H12.4316C12.3467 2.57512 12.2146 2.33494 12.042 2.12497C11.8416 1.90088 11.5959 1.72187 11.3211 1.59977C11.0464 1.47766 10.7489 1.41525 10.4482 1.41664H6.56658C6.26355 1.41323 5.9633 1.47467 5.68598 1.59684C5.40865 1.71901 5.16067 1.89908 4.95866 2.12497C4.78104 2.33381 4.64409 2.57406 4.55491 2.83331H3.54199C2.97841 2.83331 2.43791 3.05719 2.03939 3.4557C1.64088 3.85422 1.41699 4.39472 1.41699 4.9583V13.4583C1.41699 14.0219 1.64088 14.5624 2.03939 14.9609C2.43791 15.3594 2.97841 15.5833 3.54199 15.5833H13.4587C14.0222 15.5833 14.5627 15.3594 14.9613 14.9609C15.3598 14.5624 15.5837 14.0219 15.5837 13.4583V4.9583C15.5837 4.39472 15.3598 3.85422 14.9613 3.4557C14.5627 3.05719 14.0222 2.83331 13.4587 2.83331ZM6.03533 3.07414C6.1017 2.99858 6.18341 2.93803 6.27501 2.8965C6.36661 2.85498 6.466 2.83343 6.56658 2.83331H10.4341C10.5346 2.83343 10.634 2.85498 10.7256 2.8965C10.8172 2.93803 10.8989 2.99858 10.9653 3.07414C11.0322 3.14851 11.0825 3.2362 11.113 3.33143C11.1436 3.42665 11.1536 3.52726 11.1424 3.62664L10.7882 6.45997C10.7674 6.63274 10.6836 6.79178 10.553 6.90675C10.4223 7.02171 10.2539 7.08456 10.0799 7.0833H8.91824L9.72574 5.3833C9.79122 5.2166 9.79111 5.03127 9.72543 4.86464C9.65976 4.69801 9.53341 4.56245 9.3718 4.48523C9.21019 4.40802 9.02533 4.3949 8.85444 4.4485C8.68354 4.5021 8.5393 4.61846 8.45074 4.77414L7.34574 7.0833H6.92074C6.74672 7.08456 6.57832 7.02171 6.44768 6.90675C6.31704 6.79178 6.23329 6.63274 6.21241 6.45997L5.85824 3.62664C5.84709 3.52726 5.8571 3.42665 5.88762 3.33143C5.91814 3.2362 5.96848 3.14851 6.03533 3.07414ZM14.167 13.4583C14.167 13.6462 14.0924 13.8263 13.9595 13.9592C13.8267 14.092 13.6465 14.1666 13.4587 14.1666H3.54199C3.35413 14.1666 3.17396 14.092 3.04112 13.9592C2.90829 13.8263 2.83366 13.6462 2.83366 13.4583V4.9583C2.83366 4.77044 2.90829 4.59028 3.04112 4.45744C3.17396 4.3246 3.35413 4.24997 3.54199 4.24997H4.51241L4.80991 6.63705C4.87415 7.15408 5.12609 7.62949 5.51786 7.97294C5.90963 8.31639 6.41392 8.50395 6.93491 8.49997H10.0941C10.6151 8.50395 11.1194 8.31639 11.5111 7.97294C11.9029 7.62949 12.1548 7.15408 12.2191 6.63705L12.4882 4.24997H13.4587C13.6465 4.24997 13.8267 4.3246 13.9595 4.45744C14.0924 4.59028 14.167 4.77044 14.167 4.9583V13.4583ZM9.91699 11.3333H7.08366C6.8958 11.3333 6.71563 11.4079 6.58279 11.5408C6.44995 11.6736 6.37533 11.8538 6.37533 12.0416C6.37533 12.2295 6.44995 12.4097 6.58279 12.5425C6.71563 12.6753 6.8958 12.75 7.08366 12.75H9.91699C10.1049 12.75 10.285 12.6753 10.4179 12.5425C10.5507 12.4097 10.6253 12.2295 10.6253 12.0416C10.6253 11.8538 10.5507 11.6736 10.4179 11.5408C10.285 11.4079 10.1049 11.3333 9.91699 11.3333Z" fill="#7983D9"/>
</svg>
