<svg width="30" height="30" viewBox="0 0 30 30" fill="none" xmlns="http://www.w3.org/2000/svg">
<circle cx="15" cy="15.0002" r="15" fill="#7983D9" fill-opacity="0.1"/>
<g clip-path="url(#clip0_2175_1524)">
<path d="M17.0001 19.6669C17.0001 20.1973 16.7894 20.706 16.4143 21.0811C16.0392 21.4562 15.5305 21.6669 15.0001 21.6669C14.4696 21.6669 13.9609 21.4562 13.5859 21.0811C13.2108 20.706 13.0001 20.1973 13.0001 19.6669M15.4807 10.3356L14.5034 10.3336C12.2741 10.3282 10.3387 12.1396 10.3234 14.3336V16.8602C10.3234 17.3869 10.2567 17.9009 9.96941 18.3389L9.77807 18.6309C9.48674 19.0736 9.80007 19.6669 10.3234 19.6669H19.6767C20.2001 19.6669 20.5127 19.0736 20.2221 18.6309L20.0307 18.3389C19.7441 17.9009 19.6767 17.3862 19.6767 16.8596V14.3342C19.6501 12.1396 17.7101 10.3409 15.4807 10.3356Z" stroke="#7983D9" stroke-width="1.33333" stroke-linecap="round" stroke-linejoin="round"/>
<path d="M15.0001 8.33356C15.3537 8.33356 15.6928 8.47403 15.9429 8.72408C16.1929 8.97413 16.3334 9.31327 16.3334 9.66689V10.3336H13.6667V9.66689C13.6667 9.31327 13.8072 8.97413 14.0573 8.72408C14.3073 8.47403 14.6465 8.33356 15.0001 8.33356Z" stroke="#7983D9" stroke-width="1.33333" stroke-linecap="round" stroke-linejoin="round"/>
</g>
<defs>
<clipPath id="clip0_2175_1524">
<rect width="16" height="16" fill="white" transform="translate(7 7.00024)"/>
</clipPath>
</defs>
</svg>
