<svg width="14" height="18" viewBox="0 0 14 18" fill="none" xmlns="http://www.w3.org/2000/svg">
<path d="M9.25002 14.25C9.25002 14.8467 9.01297 15.419 8.59101 15.841C8.16906 16.2629 7.59676 16.5 7.00002 16.5C6.40328 16.5 5.83099 16.2629 5.40903 15.841C4.98707 15.419 4.75002 14.8467 4.75002 14.25M7.54077 3.75225L6.44127 3.75C3.93327 3.744 1.75602 5.78175 1.73877 8.25V11.0925C1.73877 11.685 1.66377 12.2632 1.34052 12.756L1.12527 13.0845C0.797522 13.5825 1.15002 14.25 1.73877 14.25H12.2613C12.85 14.25 13.2018 13.5825 12.8748 13.0845L12.6595 12.756C12.337 12.2632 12.2613 11.6842 12.2613 11.0917V8.25075C12.2313 5.78175 10.0488 3.75825 7.54077 3.75225Z" stroke="white" stroke-width="1.5" stroke-linecap="round" stroke-linejoin="round"/>
<path d="M7 1.5C7.39782 1.5 7.77936 1.65804 8.06066 1.93934C8.34196 2.22064 8.5 2.60218 8.5 3V3.75H5.5V3C5.5 2.60218 5.65804 2.22064 5.93934 1.93934C6.22064 1.65804 6.60218 1.5 7 1.5Z" stroke="white" stroke-width="1.5" stroke-linecap="round" stroke-linejoin="round"/>
</svg>
