<svg width="15" height="16" viewBox="0 0 15 16" fill="none" xmlns="http://www.w3.org/2000/svg">
<path fill-rule="evenodd" clip-rule="evenodd" d="M6.77396 1.12643C6.81543 1.30959 6.78246 1.50172 6.68231 1.66058C6.58216 1.81944 6.42302 1.93203 6.23988 1.97359C6.10089 2.00522 5.96314 2.04208 5.82692 2.08409C5.73804 2.11153 5.64463 2.1212 5.55201 2.11254C5.4594 2.10388 5.36939 2.07706 5.28714 2.03361C5.20489 1.99017 5.132 1.93095 5.07264 1.85934C5.01327 1.78772 4.96859 1.70512 4.94115 1.61624C4.91371 1.52736 4.90405 1.43394 4.91271 1.34133C4.92137 1.24871 4.94819 1.15871 4.99163 1.07646C5.03507 0.994205 5.09429 0.921316 5.16591 0.861951C5.23752 0.802586 5.32013 0.757908 5.40901 0.730467C5.57901 0.677578 5.75137 0.631536 5.92609 0.592342C6.01683 0.571706 6.11075 0.569153 6.20248 0.584829C6.29421 0.600505 6.38195 0.634102 6.46069 0.683701C6.53943 0.733299 6.60763 0.797928 6.66138 0.873893C6.71513 0.949857 6.75339 1.03567 6.77396 1.12643ZM8.22605 1.12643C8.26761 0.943286 8.3802 0.784148 8.53906 0.683996C8.69792 0.583844 8.89005 0.550877 9.07321 0.592342C12.2281 1.30776 14.584 4.12834 14.584 7.50001C14.584 11.4121 11.4121 14.5833 7.50071 14.5833C4.12834 14.5833 1.30776 12.2281 0.59234 9.07322C0.555618 8.89187 0.591314 8.70335 0.691791 8.54799C0.792268 8.39262 0.94955 8.28273 1.13 8.24183C1.31045 8.20093 1.49974 8.23226 1.65739 8.32912C1.81504 8.42598 1.92853 8.58068 1.97359 8.76013C2.19899 9.74738 2.68483 10.6562 3.38055 11.392C4.07628 12.1278 4.95647 12.6638 5.92955 12.9441C6.90263 13.2244 7.93304 13.2388 8.91359 12.9858C9.89413 12.7329 10.789 12.2218 11.505 11.5057C12.2211 10.7897 12.7322 9.89485 12.9851 8.9143C13.2381 7.93375 13.2236 6.90334 12.9433 5.93026C12.663 4.95718 12.1271 4.07699 11.3913 3.38126C10.6555 2.68554 9.74667 2.1997 8.75942 1.9743C8.57626 1.93259 8.41717 1.81983 8.31715 1.66082C8.21712 1.50182 8.18435 1.30959 8.22605 1.12643ZM3.68492 2.34334C3.74827 2.41155 3.79755 2.49157 3.82995 2.57884C3.86235 2.6661 3.87723 2.75889 3.87375 2.85191C3.87026 2.94494 3.84847 3.03636 3.80963 3.12095C3.77079 3.20554 3.71566 3.28165 3.64738 3.34493C3.54255 3.44173 3.44173 3.54231 3.34492 3.64668C3.21625 3.78056 3.04014 3.85857 2.85452 3.86389C2.6689 3.86922 2.48861 3.80143 2.35247 3.67514C2.21633 3.54885 2.13523 3.37414 2.12664 3.18864C2.11804 3.00314 2.18263 2.82169 2.30651 2.68334C2.42692 2.55301 2.55253 2.42716 2.68334 2.3058C2.75154 2.24245 2.83157 2.19317 2.91883 2.16077C3.0061 2.12837 3.09889 2.11349 3.19191 2.11697C3.28493 2.12046 3.37635 2.14225 3.46095 2.18109C3.54554 2.21993 3.62165 2.27507 3.68492 2.34334ZM7.50001 3.25001C7.68787 3.25001 7.86803 3.32464 8.00087 3.45747C8.13371 3.59031 8.20834 3.77048 8.20834 3.95834V7.20676L10.1258 9.12422C10.2548 9.25781 10.3262 9.43674 10.3246 9.62246C10.323 9.80818 10.2485 9.98584 10.1172 10.1172C9.98584 10.2485 9.80818 10.323 9.62246 10.3246C9.43673 10.3262 9.25781 10.2548 9.12421 10.1258L6.99921 8.0008C6.86637 7.86799 6.79171 7.68785 6.79167 7.50001V3.95834C6.79167 3.77048 6.8663 3.59031 6.99914 3.45747C7.13198 3.32464 7.31214 3.25001 7.50001 3.25001ZM1.61588 4.94151C1.79537 4.99686 1.94552 5.12123 2.03332 5.28727C2.12113 5.45331 2.13939 5.64742 2.08409 5.82692C2.04208 5.96314 2.00522 6.10089 1.97359 6.23988C1.92853 6.41934 1.81504 6.57404 1.65739 6.6709C1.49974 6.76776 1.31045 6.79909 1.13 6.75819C0.94955 6.71729 0.792268 6.6074 0.691791 6.45203C0.591314 6.29666 0.555618 6.10815 0.59234 5.9268C0.632006 5.75208 0.678048 5.57972 0.730465 5.40972C0.785813 5.23023 0.910183 5.08008 1.07622 4.99227C1.24226 4.90447 1.43638 4.88621 1.61588 4.94151Z" fill="#7983D9"/>
</svg>
