<svg width="17" height="17" viewBox="0 0 17 17" fill="none" xmlns="http://www.w3.org/2000/svg">
<path d="M8.50065 8.50002C10.4567 8.50002 12.0423 6.91436 12.0423 4.95835C12.0423 3.00235 10.4567 1.41669 8.50065 1.41669C6.54464 1.41669 4.95898 3.00235 4.95898 4.95835C4.95898 6.91436 6.54464 8.50002 8.50065 8.50002Z" stroke="#7983D9" stroke-width="1.41667"/>
<path d="M12.042 9.91669H12.2914C12.8092 9.91683 13.3092 10.1061 13.6974 10.4488C14.0855 10.7916 14.3352 11.2643 14.3994 11.7782L14.6763 13.991C14.7012 14.1904 14.6835 14.3927 14.6242 14.5847C14.5649 14.7766 14.4655 14.9538 14.3325 15.1044C14.1995 15.255 14.0361 15.3756 13.8529 15.4581C13.6698 15.5407 13.4712 15.5834 13.2703 15.5834H3.73045C3.52956 15.5834 3.33095 15.5407 3.14781 15.4581C2.96467 15.3756 2.80119 15.255 2.66822 15.1044C2.53525 14.9538 2.43582 14.7766 2.37655 14.5847C2.31727 14.3927 2.2995 14.1904 2.32441 13.991L2.60066 11.7782C2.6649 11.2641 2.91475 10.7912 3.30321 10.4484C3.69167 10.1056 4.19199 9.91649 4.71008 9.91669H4.9587" stroke="#7983D9" stroke-width="1.41667" stroke-linecap="round" stroke-linejoin="round"/>
</svg>
