<svg width="17" height="17" viewBox="0 0 17 17" fill="none" xmlns="http://www.w3.org/2000/svg">
<path d="M2.125 9.20833C2.125 8.45689 2.42351 7.73622 2.95486 7.20486C3.48622 6.67351 4.20689 6.375 4.95833 6.375H12.0417C12.7931 6.375 13.5138 6.67351 14.0451 7.20486C14.5765 7.73622 14.875 8.45689 14.875 9.20833V14.1667C14.875 14.5424 14.7257 14.9027 14.4601 15.1684C14.1944 15.4341 13.8341 15.5833 13.4583 15.5833H3.54167C3.16594 15.5833 2.80561 15.4341 2.53993 15.1684C2.27426 14.9027 2.125 14.5424 2.125 14.1667V9.20833Z" stroke="#7983D9" stroke-width="1.41667" stroke-linecap="round" stroke-linejoin="round"/>
<path d="M2.125 9.20831L4.18908 10.8594C5.02987 11.5324 6.24325 11.4651 7.00471 10.7036C7.20105 10.5072 7.43417 10.3514 7.69073 10.2451C7.9473 10.1388 8.22229 10.0841 8.5 10.0841C8.77771 10.0841 9.0527 10.1388 9.30927 10.2451C9.56583 10.3514 9.79895 10.5072 9.99529 10.7036C10.3632 11.0714 10.8539 11.2907 11.3733 11.3195C11.8928 11.3482 12.4046 11.1844 12.8109 10.8594L14.875 9.20831" stroke="#7983D9" stroke-width="1.41667" stroke-linecap="round"/>
<path d="M8.49967 4.24998C8.12395 4.24998 7.76362 4.10072 7.49794 3.83505C7.23226 3.56937 7.08301 3.20904 7.08301 2.83331C7.08301 2.21281 7.56255 1.71698 7.98472 1.26294L8.49967 0.708313L9.01463 1.26294C9.4368 1.71698 9.91634 2.21281 9.91634 2.83331C9.91634 3.20904 9.76709 3.56937 9.50141 3.83505C9.23573 4.10072 8.8754 4.24998 8.49967 4.24998Z" stroke="#7983D9" stroke-width="1.41667" stroke-linecap="round" stroke-linejoin="round"/>
</svg>
