<svg width="30" height="30" viewBox="0 0 30 30" fill="none" xmlns="http://www.w3.org/2000/svg">
<circle cx="15" cy="15.0001" r="15" fill="#7983D9" fill-opacity="0.1"/>
<path d="M16.3333 19.6668C18.8473 19.6668 20.1046 19.6668 20.8853 18.8855C21.6659 18.1041 21.6666 16.8475 21.6666 14.3335C21.6666 11.8195 21.6666 10.5621 20.8853 9.78146C20.1039 9.00079 18.8473 9.00012 16.3333 9.00012H13.6666C11.1526 9.00012 9.89525 9.00012 9.11459 9.78146C8.33392 10.5628 8.33325 11.8195 8.33325 14.3335C8.33325 16.8475 8.33325 18.1048 9.11459 18.8855C9.54992 19.3215 10.1333 19.5141 10.9999 19.5988" stroke="#7983D9" stroke-width="1.33333" stroke-linecap="round" stroke-linejoin="round"/>
<path d="M16.3332 19.6668C15.5092 19.6668 14.6012 20.0001 13.7726 20.4301C12.4406 21.1215 11.7746 21.4675 11.4466 21.2468C11.1186 21.0261 11.1806 20.3435 11.3052 18.9775L11.3332 18.6668" stroke="#7983D9" stroke-width="1.33333" stroke-linecap="round"/>
</svg>
