<svg width="17" height="17" viewBox="0 0 17 17" fill="none" xmlns="http://www.w3.org/2000/svg">
<path d="M1.41699 4.24998C1.41699 3.87426 1.56625 3.51392 1.83192 3.24824C2.0976 2.98257 2.45794 2.83331 2.83366 2.83331H14.167C14.5427 2.83331 14.903 2.98257 15.1687 3.24824C15.4344 3.51392 15.5837 3.87426 15.5837 4.24998V12.75C15.5837 13.1257 15.4344 13.486 15.1687 13.7517C14.903 14.0174 14.5427 14.1666 14.167 14.1666H2.83366C2.45794 14.1666 2.0976 14.0174 1.83192 13.7517C1.56625 13.486 1.41699 13.1257 1.41699 12.75V4.24998Z" stroke="#7983D9" stroke-width="1.41667" stroke-linecap="round" stroke-linejoin="round"/>
<path d="M1.41699 5.66663L6.7302 9.91733C7.23261 10.3193 7.85689 10.5383 8.50033 10.5383C9.14376 10.5383 9.76804 10.3193 10.2704 9.91733L15.5837 5.66663" stroke="#7983D9" stroke-width="1.41667" stroke-linejoin="round"/>
</svg>
