<svg width="30" height="30" viewBox="0 0 30 30" fill="none" xmlns="http://www.w3.org/2000/svg">
<circle cx="15" cy="15.0015" r="15" fill="#7983D9" fill-opacity="0.1"/>
<g clip-path="url(#clip0_2175_1522)">
<path d="M10.2593 15.0124C10.2593 14.7789 10.3053 14.5477 10.3946 14.332C10.484 14.1164 10.6149 13.9204 10.78 13.7553C10.9451 13.5902 11.141 13.4593 11.3567 13.3699C11.5724 13.2806 11.8036 13.2346 12.0371 13.2346C12.2705 13.2346 12.5017 13.2806 12.7174 13.3699C12.9331 13.4593 13.1291 13.5902 13.2941 13.7553C13.4592 13.9204 13.5902 14.1164 13.6795 14.332C13.7689 14.5477 13.8148 14.7789 13.8148 15.0124C13.8148 15.4839 13.6275 15.9361 13.2941 16.2695C12.9607 16.6028 12.5086 16.7902 12.0371 16.7902C11.5656 16.7902 11.1134 16.6028 10.78 16.2695C10.4466 15.9361 10.2593 15.4839 10.2593 15.0124ZM12.0371 14.4198C11.8799 14.4198 11.7292 14.4822 11.618 14.5933C11.5069 14.7045 11.4445 14.8552 11.4445 15.0124C11.4445 15.1695 11.5069 15.3203 11.618 15.4314C11.7292 15.5425 11.8799 15.605 12.0371 15.605C12.1942 15.605 12.345 15.5425 12.4561 15.4314C12.5672 15.3203 12.6297 15.1695 12.6297 15.0124C12.6297 14.8552 12.5672 14.7045 12.4561 14.5933C12.345 14.4822 12.1942 14.4198 12.0371 14.4198ZM12.0371 17.5803C11.5656 17.5803 11.1134 17.7676 10.78 18.101C10.4466 18.4344 10.2593 18.8866 10.2593 19.3581C10.2593 19.8295 10.4466 20.2817 10.78 20.6151C11.1134 20.9485 11.5656 21.1358 12.0371 21.1358C12.5086 21.1358 12.9607 20.9485 13.2941 20.6151C13.6275 20.2817 13.8148 19.8295 13.8148 19.3581C13.8148 18.8866 13.6275 18.4344 13.2941 18.101C12.9607 17.7676 12.5086 17.5803 12.0371 17.5803ZM11.4445 19.3581C11.4445 19.2009 11.5069 19.0502 11.618 18.939C11.7292 18.8279 11.8799 18.7655 12.0371 18.7655C12.1942 18.7655 12.345 18.8279 12.4561 18.939C12.5672 19.0502 12.6297 19.2009 12.6297 19.3581C12.6297 19.5152 12.5672 19.6659 12.4561 19.7771C12.345 19.8882 12.1942 19.9506 12.0371 19.9506C11.8799 19.9506 11.7292 19.8882 11.618 19.7771C11.5069 19.6659 11.4445 19.5152 11.4445 19.3581ZM15 15.0124C15 14.8552 15.0625 14.7045 15.1736 14.5933C15.2847 14.4822 15.4355 14.4198 15.5926 14.4198H19.1482C19.3053 14.4198 19.4561 14.4822 19.5672 14.5933C19.6783 14.7045 19.7408 14.8552 19.7408 15.0124C19.7408 15.1695 19.6783 15.3203 19.5672 15.4314C19.4561 15.5425 19.3053 15.605 19.1482 15.605H15.5926C15.4355 15.605 15.2847 15.5425 15.1736 15.4314C15.0625 15.3203 15 15.1695 15 15.0124ZM15.5926 18.7655C15.4355 18.7655 15.2847 18.8279 15.1736 18.939C15.0625 19.0502 15 19.2009 15 19.3581C15 19.5152 15.0625 19.6659 15.1736 19.7771C15.2847 19.8882 15.4355 19.9506 15.5926 19.9506H19.1482C19.3053 19.9506 19.4561 19.8882 19.5672 19.7771C19.6783 19.6659 19.7408 19.5152 19.7408 19.3581C19.7408 19.2009 19.6783 19.0502 19.5672 18.939C19.4561 18.8279 19.3053 18.7655 19.1482 18.7655H15.5926ZM10.2593 11.8519C10.2593 11.6947 10.3217 11.544 10.4329 11.4329C10.544 11.3217 10.6947 11.2593 10.8519 11.2593H19.1482C19.3053 11.2593 19.4561 11.3217 19.5672 11.4329C19.6783 11.544 19.7408 11.6947 19.7408 11.8519C19.7408 12.009 19.6783 12.1598 19.5672 12.2709C19.4561 12.382 19.3053 12.4445 19.1482 12.4445H10.8519C10.6947 12.4445 10.544 12.382 10.4329 12.2709C10.3217 12.1598 10.2593 12.009 10.2593 11.8519ZM10.4568 8.88892C9.77577 8.88892 9.12261 9.15946 8.64104 9.64104C8.15946 10.1226 7.88892 10.7758 7.88892 11.4568V20.5432C7.88892 21.2243 8.15946 21.8774 8.64104 22.359C9.12261 22.8406 9.77577 23.1111 10.4568 23.1111H19.5432C20.2243 23.1111 20.8774 22.8406 21.359 22.359C21.8406 21.8774 22.1111 21.2243 22.1111 20.5432V11.4568C22.1111 10.7758 21.8406 10.1226 21.359 9.64104C20.8774 9.15946 20.2243 8.88892 19.5432 8.88892H10.4568ZM9.0741 11.4568C9.0741 10.6936 9.69356 10.0741 10.4568 10.0741H19.5432C20.3065 10.0741 20.926 10.6936 20.926 11.4568V20.5432C20.926 20.91 20.7803 21.2617 20.521 21.521C20.2617 21.7803 19.91 21.926 19.5432 21.926H10.4568C10.0901 21.926 9.7384 21.7803 9.47909 21.521C9.21978 21.2617 9.0741 20.91 9.0741 20.5432V11.4568Z" fill="#7983D9"/>
</g>
<defs>
<clipPath id="clip0_2175_1522">
<rect width="16" height="16" fill="white" transform="translate(7 8)"/>
</clipPath>
</defs>
</svg>
