<svg width="18" height="18" viewBox="0 0 18 18" fill="none" xmlns="http://www.w3.org/2000/svg">
<path d="M14.429 7.34784H4.51237C3.72997 7.34784 3.0957 7.9821 3.0957 8.76451V14.4312C3.0957 15.2136 3.72997 15.8478 4.51237 15.8478H14.429C15.2114 15.8478 15.8457 15.2136 15.8457 14.4312V8.76451C15.8457 7.9821 15.2114 7.34784 14.429 7.34784Z" stroke="#7983D9" stroke-width="1.41667" stroke-linecap="round" stroke-linejoin="round"/>
<path d="M5.2207 4.51453C5.2207 3.95094 5.44459 3.41044 5.8431 3.01192C6.24162 2.61341 6.78212 2.38953 7.3457 2.38953H11.5957C12.1593 2.38953 12.6998 2.61341 13.0983 3.01192C13.4968 3.41044 13.7207 3.95094 13.7207 4.51453V7.34786H5.2207V4.51453Z" stroke="#7983D9" stroke-width="1.41667" stroke-linecap="round" stroke-linejoin="round"/>
</svg>
