<svg width="17" height="15" viewBox="0 0 17 15" fill="none" xmlns="http://www.w3.org/2000/svg">
<path d="M9.91667 12.4583C12.5878 12.4583 13.9237 12.4583 14.7532 11.6282C15.5826 10.798 15.5833 9.46279 15.5833 6.79167C15.5833 4.12054 15.5833 2.78462 14.7532 1.95517C13.923 1.12571 12.5878 1.125 9.91667 1.125H7.08334C4.41221 1.125 3.0763 1.125 2.24684 1.95517C1.41738 2.78533 1.41667 4.12054 1.41667 6.79167C1.41667 9.46279 1.41667 10.7987 2.24684 11.6282C2.70938 12.0914 3.32917 12.2961 4.25001 12.3861" stroke="#7983D9" stroke-width="1.41667" stroke-linecap="round" stroke-linejoin="round"/>
<path d="M9.91667 12.4583C9.04117 12.4583 8.07642 12.8125 7.19596 13.2694C5.78071 14.0039 5.07309 14.3715 4.72459 14.1371C4.37609 13.9026 4.44196 13.1773 4.57442 11.7259L4.60417 11.3958" stroke="#7983D9" stroke-width="1.41667" stroke-linecap="round"/>
</svg>
