<svg width="17" height="17" viewBox="0 0 17 17" fill="none" xmlns="http://www.w3.org/2000/svg">
<path d="M8.5 15.5833C4.97958 15.5833 2.125 13.7544 2.125 10.625V10.5627C2.125 9.06241 3.07275 7.86249 4.51562 7.08332C5.89617 6.33816 6.71217 4.96541 6.50817 3.54166L6.10937 1.41666L7.58696 1.97978C10.2482 2.9927 12.4645 4.75078 13.901 6.98486C14.5325 7.95542 14.8706 9.08746 14.875 10.2453V10.625C14.875 11.7314 14.518 12.6756 13.901 13.4335" stroke="#7983D9" stroke-width="1.41667" stroke-linecap="round" stroke-linejoin="round"/>
<path d="M8.5 15.5833C7.32629 15.5833 6.375 14.5683 6.375 13.3167C6.375 12.325 7.09467 11.5309 7.72792 10.8035L8.5 9.91666L9.27208 10.8035C9.90533 11.5317 10.625 12.325 10.625 13.3167C10.625 14.5683 9.67371 15.5833 8.5 15.5833Z" stroke="#7983D9" stroke-width="1.41667" stroke-linecap="round" stroke-linejoin="round"/>
</svg>
