<svg width="18" height="18" viewBox="0 0 18 18" fill="none" xmlns="http://www.w3.org/2000/svg">
<path d="M1.5 4.5C1.5 3.70435 1.81607 2.94129 2.37868 2.37868C2.94129 1.81607 3.70435 1.5 4.5 1.5H13.5C14.2956 1.5 15.0587 1.81607 15.6213 2.37868C16.1839 2.94129 16.5 3.70435 16.5 4.5V8.25H1.5V4.5Z" stroke="white" stroke-width="1.5" stroke-linecap="round" stroke-linejoin="round"/>
<path d="M13.875 12.375H11.625" stroke="white" stroke-width="1.5" stroke-linecap="round"/>
<path d="M9 8.25H16.5V13.5C16.5 14.2956 16.1839 15.0587 15.6213 15.6213C15.0587 16.1839 14.2956 16.5 13.5 16.5H9M9 8.25V16.5M9 8.25H1.5V13.5C1.5 14.2956 1.81607 15.0587 2.37868 15.6213C2.94129 16.1839 3.70435 16.5 4.5 16.5H9" stroke="white" stroke-width="1.5" stroke-linecap="round" stroke-linejoin="round"/>
<path d="M4.125 13.5L5.25 12.375M5.25 12.375L6.375 11.25M5.25 12.375L6.375 13.5M5.25 12.375L4.125 11.25" stroke="white" stroke-width="1.5" stroke-linecap="round"/>
</svg>
