<svg width="17" height="17" viewBox="0 0 17 17" fill="none" xmlns="http://www.w3.org/2000/svg">
<path d="M13.8123 1.32812H11.1561C10.9447 1.32812 10.742 1.41208 10.5926 1.56152C10.4431 1.71097 10.3592 1.91366 10.3592 2.125C10.3592 2.33634 10.4431 2.53903 10.5926 2.68848C10.742 2.83792 10.9447 2.92188 11.1561 2.92188H11.8865L10.8479 3.96246C10.3161 3.52053 9.68992 3.20663 9.01762 3.04498C8.34531 2.88332 7.64486 2.87822 6.97027 3.03007C6.29568 3.18192 5.66497 3.48666 5.12678 3.9208C4.58858 4.35494 4.15728 4.90687 3.86612 5.53405C3.57496 6.16123 3.43173 6.8469 3.44746 7.53819C3.46319 8.22948 3.63747 8.90793 3.95685 9.52121C4.27624 10.1345 4.7322 10.6662 5.28959 11.0755C5.84697 11.4847 6.49089 11.7604 7.17169 11.8814V12.75H5.84356C5.63222 12.75 5.42953 12.834 5.28009 12.9834C5.13064 13.1328 5.04669 13.3355 5.04669 13.5469C5.04669 13.7582 5.13064 13.9609 5.28009 14.1104C5.42953 14.2598 5.63222 14.3438 5.84356 14.3438H7.17169V15.4062C7.17169 15.6176 7.25564 15.8203 7.40509 15.9697C7.55453 16.1192 7.75722 16.2031 7.96856 16.2031C8.17991 16.2031 8.38259 16.1192 8.53204 15.9697C8.68148 15.8203 8.76544 15.6176 8.76544 15.4062V14.3438H10.0936C10.3049 14.3438 10.5076 14.2598 10.657 14.1104C10.8065 13.9609 10.8904 13.7582 10.8904 13.5469C10.8904 13.3355 10.8065 13.1328 10.657 12.9834C10.5076 12.834 10.3049 12.75 10.0936 12.75H8.76544V11.8814C9.47861 11.7542 10.1507 11.4571 10.7247 11.0152C11.2988 10.5734 11.758 9.99973 12.0635 9.34287C12.369 8.686 12.5118 7.96522 12.4799 7.24149C12.4479 6.51776 12.2421 5.81238 11.8799 5.185L13.0154 4.05078V4.78125C13.0154 4.99259 13.0994 5.19528 13.2488 5.34473C13.3983 5.49417 13.601 5.57812 13.8123 5.57812C14.0237 5.57812 14.2263 5.49417 14.3758 5.34473C14.5252 5.19528 14.6092 4.99259 14.6092 4.78125V2.125C14.6092 1.91366 14.5252 1.71097 14.3758 1.56152C14.2263 1.41208 14.0237 1.32812 13.8123 1.32812ZM7.96856 10.3594C7.39067 10.3594 6.82575 10.188 6.34525 9.86695C5.86475 9.54589 5.49025 9.08956 5.2691 8.55565C5.04795 8.02175 4.99009 7.43426 5.10283 6.86747C5.21557 6.30068 5.49385 5.78005 5.90248 5.37142C6.31112 4.96279 6.83174 4.68451 7.39853 4.57177C7.96532 4.45903 8.55281 4.51689 9.08672 4.73804C9.62062 4.95919 10.077 5.33369 10.398 5.81419C10.7191 6.29469 10.8904 6.85961 10.8904 7.4375C10.8896 8.21216 10.5814 8.95484 10.0337 9.50261C9.4859 10.0504 8.74322 10.3585 7.96856 10.3594Z" fill="#7983D9"/>
</svg>
